<?xml version="1.0" encoding="UTF-8"?>
<!DOCTYPE svg PUBLIC "-//W3C//DTD SVG 1.1//EN" "http://www.w3.org/Graphics/SVG/1.1/DTD/svg11.dtd">
<!-- Creator: CorelDRAW X5 -->
<svg xmlns="http://www.w3.org/2000/svg" xml:space="preserve" width="210mm" height="297mm" style="shape-rendering:geometricPrecision; text-rendering:geometricPrecision; image-rendering:optimizeQuality; fill-rule:evenodd; clip-rule:evenodd"
viewBox="0 0 21000 29700"
 xmlns:xlink="http://www.w3.org/1999/xlink">
 <defs>
  <style type="text/css">
   <![CDATA[
    .str3 {stroke:#2A2A29;stroke-width:20}
    .str1 {stroke:#2A2A29;stroke-width:20}
    .str0 {stroke:#AF9778;stroke-width:20}
    .str5 {stroke:#B2B3B3;stroke-width:20}
    .str7 {stroke:#032B10;stroke-width:20}
    .str6 {stroke:#487135;stroke-width:20}
    .str8 {stroke:#ADD944;stroke-width:20}
    .str2 {stroke:#BEA69C;stroke-width:20}
    .str4 {stroke:#A7938A;stroke-width:20}
    .fil5 {fill:none}
    .fil2 {fill:#2A2A29}
    .fil8 {fill:#434242}
    .fil9 {fill:#5B5B5A}
    .fil3 {fill:#727271}
    .fil11 {fill:#898989}
    .fil4 {fill:#AF9778}
    .fil10 {fill:#B2B3B3}
    .fil14 {fill:#D9DADA}
    .fil21 {fill:#E31E24}
    .fil13 {fill:#ECECEC}
    .fil1 {fill:#FEFEFE}
    .fil15 {fill:#032B10}
    .fil20 {fill:#ADD944}
    .fil6 {fill:#E2D4C9}
    .fil0 {fill:#EAC362}
    .fil7 {fill:#CAB5A2}
    .fil19 {fill:url(#id2)}
    .fil16 {fill:url(#id3)}
    .fil18 {fill:url(#id4)}
    .fil17 {fill:url(#id5)}
    .fil12 {fill:url(#id6)}
   ]]>
  </style>
    <mask id="id0">
  <linearGradient id="id1" gradientUnits="userSpaceOnUse" x1="9684.38" y1="17969" x2="9705.48" y2="19122.7">
   <stop offset="0" style="stop-opacity:1; stop-color:white"/>
   <stop offset="1" style="stop-opacity:0; stop-color:white"/>
  </linearGradient>
     <rect style="fill:url(#id1)" x="2333" y="17416" width="14724" height="2260"/>
    </mask>
  <linearGradient id="id2" gradientUnits="userSpaceOnUse" x1="12549.5" y1="17498.8" x2="13850.2" y2="17498.8">
   <stop offset="0" style="stop-color:#182410"/>
   <stop offset="0.180392" style="stop-color:#487135"/>
   <stop offset="0.231373" style="stop-color:#B0CB1F"/>
   <stop offset="0.290196" style="stop-color:#487135"/>
   <stop offset="0.388235" style="stop-color:#182410"/>
   <stop offset="0.501961" style="stop-color:#487135"/>
   <stop offset="0.54902" style="stop-color:#B0CB1F"/>
   <stop offset="0.6" style="stop-color:#487135"/>
   <stop offset="0.721569" style="stop-color:#487135"/>
   <stop offset="0.788235" style="stop-color:#B0CB1F"/>
   <stop offset="0.839216" style="stop-color:#487135"/>
   <stop offset="0.909804" style="stop-color:#487135"/>
   <stop offset="1" style="stop-color:#032B10"/>
  </linearGradient>
  <linearGradient id="id3" gradientUnits="userSpaceOnUse" x1="13229.2" y1="18524.7" x2="13170.5" y2="14407.8">
   <stop offset="0" style="stop-color:#487135"/>
   <stop offset="0.478431" style="stop-color:#849340"/>
   <stop offset="1" style="stop-color:#ADD944"/>
  </linearGradient>
  <linearGradient id="id4" gradientUnits="userSpaceOnUse" x1="12859.6" y1="15252.5" x2="13556.4" y2="15265.5">
   <stop offset="0" style="stop-color:#C5A75F"/>
   <stop offset="0.290196" style="stop-color:#C5A75F"/>
   <stop offset="0.490196" style="stop-color:#FFFADB"/>
   <stop offset="0.670588" style="stop-color:#FFF383"/>
   <stop offset="1" style="stop-color:#AF9778"/>
  </linearGradient>
  <linearGradient id="id5" gradientUnits="userSpaceOnUse" xlink:href="#id4" x1="12874.1" y1="17492.7" x2="13525.6" y2="17504.8">
  </linearGradient>
  <linearGradient id="id6" gradientUnits="userSpaceOnUse" x1="9677.07" y1="18189.5" x2="9712.79" y2="18902.2">
   <stop offset="0" style="stop-color:#86776F"/>
   <stop offset="1" style="stop-color:#FEFEFE"/>
  </linearGradient>
 </defs>
 <g id="Layer_x0020_1">
  <metadata id="CorelCorpID_0Corel-Layer"/>
  <g id="_185562552">
   <path class="fil0" d="M7546 12779c378,429 826,697 1275,962 108,-105 215,-210 323,-316 11,-223 22,-445 33,-668 -548,3 -1095,6 -1643,10 4,4 8,8 11,12z"/>
   <path class="fil1 str0" d="M10403 17570c-200,-691 -352,-1362 -476,-2029 -136,-728 -238,-1452 -333,-2193 -89,6 -178,-31 -267,-24 -33,164 -82,367 -115,531 -456,-136 -947,-262 -1403,-398 192,431 418,858 610,1289 -7,823 -69,1590 433,2426 24,157 6,353 30,510 507,-37 1014,-75 1521,-112z"/>
   <path class="fil1 str0" d="M7476 12704c378,420 918,738 1381,1062 -315,-140 -734,-169 -1049,-309 -99,-222 -233,-530 -332,-753z"/>
   <path class="fil1 str0" d="M9179 12720c-12,235 -24,470 -35,706 -214,91 -300,263 -384,437 136,-77 290,-52 450,0 35,-175 71,-350 106,-525 87,4 173,9 260,13 -154,-286 -174,-605 -163,-926 -63,94 -171,201 -234,295z"/>
   <polygon class="fil2" points="8699,14922 8713,15041 8804,14988 "/>
   <path class="fil2" d="M7819 15519c-249,-706 -527,-1408 -1003,-2085 240,-221 481,-443 721,-664 294,659 587,1318 881,1976 11,115 21,253 32,368 -211,143 -421,262 -632,405z"/>
   <path class="fil2 str1" d="M10807 12922c-74,-10 -148,-21 -222,-31 -393,-55 -782,-70 -1175,-125 189,941 363,1841 504,2777 101,672 293,1331 477,1996 132,9 263,17 395,26 65,4 131,9 196,13 43,-1537 -34,-3092 -175,-4657z"/>
   <path class="fil3" d="M10816 12914c-74,-10 -156,-22 -230,-32 197,1567 202,3131 200,4684 65,4 131,9 196,13 20,-1541 -5,-3098 -166,-4665z"/>
   <circle class="fil4" cx="8663" cy="14405" r="79"/>
   <line class="fil5 str0" x1="8761" y1="13862" x2="8872" y2= "14957" />
   <line class="fil5 str0" x1="9146" y1="17014" x2="9193" y2= "17660" />
   <g>
    <path class="fil6 str2" d="M12084 12351c79,-1 159,-2 238,-2 286,-3 572,-6 857,-8 581,-22 645,180 699,386 5,513 11,1027 16,1540 -30,-32 -60,-63 -90,-95 -573,-607 -1147,-1214 -1720,-1821z"/>
    <path class="fil5 str2" d="M13804 14172c-11,-497 -22,-994 -33,-1491 -19,-174 -153,-262 -313,-331"/>
    <path class="fil5 str2" d="M12755 13061c-19,-254 -183,-507 -463,-712"/>
   </g>
   <polygon class="fil7 str3" points="11882,17652 12009,14991 12825,15404 12978,17689 "/>
   <ellipse class="fil5 str4" cx="12102" cy="16393" rx="124" ry="167"/>
   <path class="fil5 str4" d="M12686 15898c-90,227 -274,335 -471,428"/>
   <path class="fil5 str4" d="M12193 16513c17,74 266,237 361,246"/>
   <path class="fil5 str4" d="M12065 16234c-47,-67 -75,-141 -105,-213"/>
   <path class="fil8 str3" d="M9606 11435c101,-1 239,38 418,122 461,-47 922,-93 1397,-90 375,192 620,491 762,873 135,68 256,165 349,318 5,34 11,67 16,101 6,10 13,21 19,30 138,214 308,318 510,509 120,72 168,136 222,201 509,454 887,948 1254,1445 430,879 4,1873 -239,2814 -653,-21 -1066,-136 -1719,-158 191,-593 381,-1185 572,-1778 -170,-92 -340,-182 -505,-284 -202,-125 -395,-266 -564,-447 -3,10 -5,20 -8,29 -203,747 -137,1575 -66,2405 -347,18 -695,35 -1042,53 -58,-1552 -116,-3104 -175,-4657 -177,-25 -353,-49 -530,-74 33,-130 104,-242 201,-343 -305,-265 -610,-529 -915,-794 14,-92 29,-184 43,-277z"/>
   <path class="fil5 str3" d="M11800 14534c67,230 124,456 290,587"/>
   <path class="fil5 str1" d="M12657 13004c-229,415 -400,850 -503,1307 -59,272 -84,494 -56,781"/>
   <path class="fil0" d="M9491 16252c-198,-394 -397,-789 -595,-1183 726,-449 1451,-898 2177,-1347 303,74 572,223 826,423 74,191 148,381 222,572 -123,450 -384,733 -868,656 0,-82 10,-171 -64,-201 -353,178 -702,260 -1048,233 -265,248 -388,619 -651,847z"/>
   <path class="fil3" d="M9878 15785c-68,93 -136,187 -204,280 -313,-107 -406,-195 -520,-511 87,-75 249,-155 336,-230 40,43 -5,269 388,461z"/>
   <ellipse class="fil9" cx="9195" cy="15265" rx="335" ry="320"/>
   <ellipse class="fil10" cx="9169" cy="15234" rx="335" ry="320"/>
   <path class="fil1 str0" d="M8719 15043c102,-57 203,-115 305,-172 4,565 261,959 472,1389 36,-37 79,-64 167,-199 -4,197 78,540 2,714 -218,-96 -1087,-1405 -947,-1732z"/>
   <path class="fil5 str3" d="M11766 13707c-16,-207 216,-518 417,-1367"/>
   <path class="fil8" d="M6346 12917c176,150 345,333 520,483 -15,15 -29,30 -44,45 574,623 852,1335 1003,2085 29,-76 -341,201 -645,419 -162,50 -321,103 -385,95 -149,9 -191,-104 -179,-279 -148,-185 -212,-415 -339,-592 -36,-109 -219,-397 -321,-576 -155,-271 -147,-619 -229,-936 204,-237 415,-508 619,-745z"/>
   <polygon class="fil2" points="7549,12797 6870,13416 6333,12939 7048,11743 "/>
   <path class="fil11 str1" d="M6940 13320c478,645 1548,3696 1793,4432 -64,21 -94,29 -158,53 -232,-724 -1300,-3712 -1758,-4372 41,-38 82,-76 123,-114z"/>
   <path class="fil8" d="M8433 17368c6,-8 -1079,617 -1053,614l1200 -176 -147 -437z"/>
   <polygon class="fil2 str3" points="8852,17173 8882,17683 8731,17744 8577,17293 "/>
   <path class="fil6 str2" d="M4018 12898l-3 5752 0 0c343,-266 910,-504 1641,-698l-65 -5636c-584,46 -1443,-152 -1572,583z"/>
   <ellipse class="fil5 str2" cx="4636" cy="16748" rx="120" ry="181"/>
   <path class="fil5 str2" d="M4016 16248c388,320 285,248 542,362"/>
   <path class="fil5 str2" d="M4732 16638c10,13 198,-121 184,-135"/>
   <path class="fil5 str2" d="M4729 16863c176,50 293,195 417,307"/>
   <path class="fil12" style="mask:url(#id0)" d="M10416 17426c3267,0 5993,621 6631,1448l-13262 0c639,-827 3365,-1448 6631,-1448z"/>
   <path class="fil8 str3" d="M7199 11829c-230,99 -644,38 -884,250 -739,2 -1287,343 -1870,635 -60,109 -132,204 -162,315 -96,346 12,723 4,1078 53,176 -56,326 130,432 -101,127 39,275 122,260 -4,71 17,192 137,243 -78,120 -90,227 30,318 -135,253 -99,437 95,666 175,964 610,1750 964,2324 285,121 627,92 953,106 607,-476 1295,-879 1999,-1232 313,-157 629,-304 942,-444 -468,-594 -822,-1187 -947,-1751 -7,-31 -13,-61 -18,-92 -259,144 -451,328 -710,472 -276,168 -539,349 -794,538 -65,22 -52,23 -220,62 -281,118 -363,-12 -362,-247 -302,-397 -297,-794 -388,-1191 38,-544 91,-1084 129,-1628 241,-416 611,-698 852,-1114z"/>
   <path class="fil5 str1" d="M4446 12714c815,-282 1209,1158 1486,1839 159,286 319,572 478,857"/>
   <path class="fil5 str3" d="M6115 15325c-470,15 -940,22 -1410,95"/>
   <path class="fil5 str3" d="M5833 14537c-478,-769 -823,-1797 -1434,-1498"/>
   <path class="fil5 str3" d="M5849 14674c-292,-494 -626,-951 -1201,-1191"/>
   <path class="fil5 str3" d="M5018 14439c-273,-234 -540,-476 -763,-781"/>
   <path class="fil5 str3" d="M4416 14599c410,125 921,183 1386,222"/>
   <path class="fil5 str3" d="M5762 14903c-409,5 -818,-4 -1223,-43"/>
   <path class="fil5 str3" d="M5689 15082c-345,1 -699,-7 -1014,21"/>
   <line class="fil5 str3" x1="7208" y1="17227" x2="7218" y2= "15926" />
   <path class="fil5 str3" d="M5167 16633c360,-522 797,-900 1387,-945"/>
   <path class="fil5 str3" d="M6809 16052c-543,373 -575,873 -130,1493"/>
   <path class="fil5 str3" d="M5948 17704c-245,-847 87,-1364 707,-1717"/>
   <path class="fil5 str3" d="M5498 17413c154,-878 496,-1460 1109,-1614"/>
   <path class="fil5 str3" d="M5286 16992c308,-748 765,-1153 1321,-1231"/>
   <path class="fil5 str3" d="M4962 15799c470,-218 942,-420 1447,-390"/>
   <ellipse class="fil3" transform="matrix(0.780115 -0.207564 0.207564 0.780115 8621.22 17106.4)" rx="139" ry="87"/>
   <ellipse class="fil3" transform="matrix(0.861569 -0.229237 0.229237 0.861569 8861.74 16985.5)" rx="139" ry="87"/>
   <ellipse class="fil3" transform="matrix(0.966379 -0.257123 0.257123 0.966379 9144.34 16841.9)" rx="139" ry="87"/>
   <path class="fil5 str1" d="M12726 14126c-224,148 -439,322 -625,496"/>
   <path class="fil5 str1" d="M13160 13512c-133,322 -216,657 -265,1000"/>
   <path class="fil5 str1" d="M13162 14689c-2,-341 43,-661 196,-931"/>
   <path class="fil5 str1" d="M13128 15750c18,-86 1286,-474 1225,-357"/>
   <path class="fil5 str1" d="M13136 15805c412,-158 828,-268 1254,-263"/>
   <path class="fil5 str1" d="M13167 15822c231,-22 500,-72 760,-82 160,-6 316,32 458,18"/>
   <path class="fil5 str1" d="M12271 15189c263,105 1093,-135 1058,-212"/>
   <path class="fil5 str1" d="M13406 15266c-85,246 -243,358 -399,475"/>
   <path class="fil5 str1" d="M13088 15748c175,-115 342,-236 439,-407"/>
   <path class="fil2 str1" d="M9563 11711c363,152 651,451 915,794 -115,111 -179,249 -217,402 -295,-57 -580,-104 -852,-149 -25,-353 51,-701 154,-1047z"/>
   <path class="fil8" d="M6096 14588l492 -5c0,0 -139,-1385 -101,-1429 39,-44 -304,-352 -304,-352l-87 1786z"/>
   <path class="fil0" d="M6401 7873c-266,391 -494,754 -760,1145 -544,-225 -1074,-493 -1618,-719 785,-253 1555,-356 2378,-427z"/>
   <path class="fil2" d="M5696 8644c-37,-18 247,-369 247,-369l-1115 37 868 332z"/>
   <path class="fil0" d="M9556 7518c346,322 649,626 996,948 480,-341 938,-720 1418,-1060 -821,-72 -1595,-1 -2413,113z"/>
   <circle class="fil0" transform="matrix(1.38802 -0.156211 0.156211 1.38802 8187.95 9849.1)" r="2011"/>
   <path class="fil1" d="M7562 9484c17,38 28,79 33,122 29,258 -184,494 -477,527l0 0c-21,-5 -43,-11 -65,-17 -314,-95 -530,-318 -512,-519 8,-40 21,-79 40,-116 106,-163 399,-223 702,-131 106,32 200,78 278,133z"/>
   <path class="fil1" d="M8704 9380c-8,41 -10,83 -5,126 29,258 290,441 582,408l0 0c20,-10 40,-20 59,-31 286,-162 446,-428 384,-619 -17,-37 -39,-72 -65,-104 -139,-136 -439,-129 -714,28 -96,55 -178,121 -242,192z"/>
   <circle class="fil2" transform="matrix(1.05781 -0.119048 0.119048 1.05781 7199.06 9811.78)" r="69"/>
   <circle class="fil2" transform="matrix(1.05781 -0.119048 0.119048 1.05781 9109.47 9599.67)" r="69"/>
   <path class="fil2" d="M10415 8113c32,-26 -323,-305 -323,-305l1095 -212 -772 517z"/>
   <path class="fil2" d="M8160 9878c116,-13 221,66 233,176 1,4 1,9 1,13l-421 47c-1,-4 -1,-9 -2,-13 -12,-110 72,-211 188,-224z"/>
   <rect class="fil2" transform="matrix(0.125997 -0.01418 0.103881 0.923035 8143.6 10095.7)" width="646" height="209"/>
   <rect class="fil2" transform="matrix(-0.01418 -0.125997 0.923035 -0.103881 8093.69 10155.9)" width="646" height="209"/>
   <path class="fil1" d="M9797 10256c-96,712 -690,1299 -1467,1387 -780,88 -1492,-357 -1741,-1033 410,60 995,61 1638,-12 627,-71 1185,-197 1570,-341z"/>
   <path class="fil13 str5" d="M5980 10831c-180,-972 -44,-1442 41,-2385 101,-379 167,-775 1041,-787 1272,411 1860,251 2144,-152 1121,-303 1229,1529 1503,2900 -200,-258 -594,-443 -1073,-349 -1095,213 -1952,437 -2837,364 -388,60 -632,216 -820,409zm4831 20l0 1c406,-815 53,-1910 35,-2853 -175,-884 -721,-1762 -1352,-2284 -3631,-901 -5109,1954 -4056,4703 40,346 185,780 276,833 240,1104 3681,3295 5097,-400zm-1014 -595c-132,978 -2874,1262 -3208,353 410,60 995,61 1638,-12 627,-71 1185,-197 1570,-341z"/>
   <path class="fil14 str5" d="M6293 9431c127,-78 317,-245 444,-323 265,28 593,67 858,95 -232,23 -569,59 -801,82 -160,26 -341,119 -501,146z"/>
   <path class="fil14 str5" d="M8603 9198c127,-78 317,-245 444,-323 265,28 593,67 858,95 -232,23 -569,59 -801,82 -160,26 -341,119 -501,146z"/>
   <path class="fil5 str3" d="M6884 15614c-63,-440 -606,-1568 -968,-1965"/>
   <path class="fil5 str3" d="M6834 15902c-164,-374 -336,-754 -545,-1154"/>
   <path class="fil5 str3" d="M12000 13688c113,-361 280,-683 548,-931"/>
   <path class="fil15" d="M13727 18610c111,-66 138,-95 138,-372l-3 -1979c0,-22 0,-154 -42,-233 -60,-115 -173,-261 -203,-404l-170 -960c16,-17 51,-39 55,-83l-39 -60c13,0 29,-17 44,-17 0,-54 -31,-108 -60,-143 -32,-26 -465,-26 -491,0 -29,35 -58,89 -58,143 13,0 29,17 44,17l-41 60c4,44 41,66 55,83l-169 960c-31,143 -150,288 -210,404 -41,79 -42,213 -42,233l0 1979c0,277 28,306 138,372 271,92 782,92 1053,0z"/>
   <path class="fil16" d="M13727 18510c111,-64 138,4 138,-271l-3 -1979c0,-22 0,-154 -42,-233 -60,-115 -173,-261 -203,-404l-170 -960c16,-17 51,-39 55,-83l-39 -60c13,0 29,-17 44,-17 0,-54 -31,-108 -60,-143 -19,-29 -474,-22 -491,0 -29,35 -58,89 -58,143 13,0 29,17 44,17l-41 60c4,44 41,66 55,83l-169 960c-31,143 -150,288 -210,404 -41,79 -42,213 -42,233l0 1979c0,275 28,207 138,271 271,92 782,92 1053,0z"/>
   <path class="fil17" d="M13864 18003c0,318 -1327,284 -1327,0 0,-441 0,-884 0,-1326 148,213 1156,178 1326,67l0 726 1 0 0 534z"/>
   <path class="fil5 str6" d="M13490 14904c-218,26 -403,86 -604,159"/>
   <path class="fil5 str6" d="M13616 15611c-270,-12 -541,-32 -814,-74"/>
   <path class="fil18" d="M13616 15611l-125 -705c-179,23 -372,65 -608,157l-83 473c278,39 549,62 817,74z"/>
   <path class="fil19" d="M13864 18003c0,318 -1327,284 -1327,0 0,-441 0,-884 0,-1326 148,213 1156,178 1326,67l0 419c-109,-139 -277,-227 -464,-227 -329,0 -595,272 -595,607 0,335 267,607 595,607 188,0 356,-89 465,-228l0 -453 0 0 0 534z"/>
   <path class="fil20" d="M12724 15985l117 -194c85,-31 316,-103 420,20 34,38 29,111 -16,143 -76,-3 -252,29 -299,138 -60,-71 -149,-89 -221,-108z"/>
   <path class="fil5" d="M13398 16887c188,0 356,92 465,237l0 789c-109,144 -277,237 -465,237 -329,0 -595,-283 -595,-631 0,-349 267,-631 595,-631z"/>
   <path class="fil5 str7" d="M13390 16935c194,0 365,97 472,246l0 722c-107,149 -279,246 -472,246 -324,0 -587,-272 -587,-607 0,-335 263,-607 587,-607z"/>
   <path class="fil5 str8" d="M13380 16917c199,0 375,102 483,260l0 730c-108,157 -284,260 -483,260 -329,0 -595,-280 -595,-625 0,-345 267,-625 595,-625z"/>
   <polygon class="fil21" points="13863,17812 13842,17814 13740,17656 13658,17823 13480,17833 13631,17568 13440,17310 13440,17306 13620,17296 13733,17460 13828,17285 13863,17283 13863,17526 13843,17560 13863,17588 "/>
   <path class="fil21" d="M13431 17298l-1 -1 1 0 0 1zm-42 533l-180 -7 -87 -166 -97 159 -178 -7 175 -249 -169 -280 183 7 97 174 111 -165 182 7 -193 268 155 260z"/>
   <path class="fil21" d="M13581 15411l-47 1 -69 -90 -47 96 -102 5 87 -152 -111 -151 105 -6 65 94 48 -100 18 -1 24 133 -11 32 23 30 19 108zm-294 -287l2 0 -2 3 0 -3z"/>
   <path class="fil21" d="M13291 15117l-1 -1 0 0 0 1zm-25 325l-109 -4 -53 -101 -59 97 -108 -4 106 -152 -103 -170 112 5 59 106 68 -101 111 5 -118 163 95 158z"/>
   <path class="fil5 str2" d="M4636 16929c-342,532 -307,1049 -345,1539"/>
  </g>
 </g>
</svg>
